<mxfile host="app.diagrams.net" modified="2023-12-14T12:40:18.746Z" agent="Mozilla/5.0 (Windows NT 10.0; Win64; x64) AppleWebKit/537.36 (KHTML, like Gecko) Chrome/120.0.0.0 Safari/537.36" etag="k38ZJJtI8ohV9x4lKEXF" version="22.1.8" type="device">
  <diagram name="Page-1" id="QWAuEWajFAAfHbqOuAqM">
    <mxGraphModel dx="564" dy="1338" grid="1" gridSize="10" guides="1" tooltips="1" connect="1" arrows="1" fold="1" page="1" pageScale="1" pageWidth="850" pageHeight="1100" math="0" shadow="0">
      <root>
        <mxCell id="0" />
        <mxCell id="1" parent="0" />
        <mxCell id="QhzFy7cTt0LRHf0W6aZB-3" value="" style="edgeStyle=orthogonalEdgeStyle;rounded=0;orthogonalLoop=1;jettySize=auto;html=1;" edge="1" parent="1" source="QhzFy7cTt0LRHf0W6aZB-1" target="QhzFy7cTt0LRHf0W6aZB-2">
          <mxGeometry relative="1" as="geometry" />
        </mxCell>
        <mxCell id="QhzFy7cTt0LRHf0W6aZB-1" value="CalcDistance" style="shape=process;whiteSpace=wrap;html=1;backgroundOutline=1;" vertex="1" parent="1">
          <mxGeometry x="190" y="60" width="100" height="30" as="geometry" />
        </mxCell>
        <mxCell id="QhzFy7cTt0LRHf0W6aZB-5" value="" style="edgeStyle=orthogonalEdgeStyle;rounded=0;orthogonalLoop=1;jettySize=auto;html=1;" edge="1" parent="1" source="QhzFy7cTt0LRHf0W6aZB-2" target="QhzFy7cTt0LRHf0W6aZB-4">
          <mxGeometry relative="1" as="geometry" />
        </mxCell>
        <mxCell id="QhzFy7cTt0LRHf0W6aZB-2" value="set DrivenDistance to ((Left+Right)/Gearing * WheelCircumference)/2" style="whiteSpace=wrap;html=1;" vertex="1" parent="1">
          <mxGeometry x="170" y="110" width="140" height="60" as="geometry" />
        </mxCell>
        <mxCell id="QhzFy7cTt0LRHf0W6aZB-4" value="Return DrivenDistance" style="ellipse;whiteSpace=wrap;html=1;" vertex="1" parent="1">
          <mxGeometry x="160" y="190" width="160" height="60" as="geometry" />
        </mxCell>
      </root>
    </mxGraphModel>
  </diagram>
</mxfile>
